<mxfile host="app.diagrams.net" modified="2022-05-28T03:09:54.128Z" agent="5.0 (Windows NT 10.0; Win64; x64) AppleWebKit/537.36 (KHTML, like Gecko) Chrome/101.0.4951.67 Safari/537.36" etag="0_gH1zEFpZboN2lr5XEk" version="18.1.3" type="github">
  <diagram id="_PjnXzG9L_i86fLd0PWW" name="第 1 页">
    <mxGraphModel dx="1038" dy="571" grid="1" gridSize="10" guides="1" tooltips="1" connect="1" arrows="1" fold="1" page="1" pageScale="1" pageWidth="827" pageHeight="1169" math="0" shadow="0">
      <root>
        <mxCell id="0" />
        <mxCell id="1" parent="0" />
        <mxCell id="z98jd1UXB-r755YIcB5x-12" style="edgeStyle=orthogonalEdgeStyle;rounded=0;orthogonalLoop=1;jettySize=auto;html=1;entryX=0.5;entryY=0;entryDx=0;entryDy=0;fontSize=14;strokeWidth=2;" edge="1" parent="1" source="z98jd1UXB-r755YIcB5x-1" target="z98jd1UXB-r755YIcB5x-2">
          <mxGeometry relative="1" as="geometry" />
        </mxCell>
        <mxCell id="z98jd1UXB-r755YIcB5x-1" value="&lt;font style=&quot;font-size: 14px;&quot;&gt;开始&lt;/font&gt;" style="ellipse;whiteSpace=wrap;html=1;strokeWidth=2;" vertex="1" parent="1">
          <mxGeometry x="310" y="20" width="120" height="80" as="geometry" />
        </mxCell>
        <mxCell id="z98jd1UXB-r755YIcB5x-13" style="edgeStyle=orthogonalEdgeStyle;rounded=0;orthogonalLoop=1;jettySize=auto;html=1;entryX=0.5;entryY=0;entryDx=0;entryDy=0;fontSize=14;strokeWidth=2;" edge="1" parent="1" source="z98jd1UXB-r755YIcB5x-2" target="z98jd1UXB-r755YIcB5x-3">
          <mxGeometry relative="1" as="geometry" />
        </mxCell>
        <mxCell id="z98jd1UXB-r755YIcB5x-2" value="创建一个UUID" style="rounded=1;whiteSpace=wrap;html=1;fontSize=14;strokeWidth=2;" vertex="1" parent="1">
          <mxGeometry x="310" y="150" width="120" height="60" as="geometry" />
        </mxCell>
        <mxCell id="z98jd1UXB-r755YIcB5x-6" style="edgeStyle=orthogonalEdgeStyle;rounded=0;orthogonalLoop=1;jettySize=auto;html=1;entryX=0.5;entryY=0;entryDx=0;entryDy=0;fontSize=14;exitX=0.5;exitY=1;exitDx=0;exitDy=0;strokeWidth=2;" edge="1" parent="1" source="z98jd1UXB-r755YIcB5x-3" target="z98jd1UXB-r755YIcB5x-4">
          <mxGeometry relative="1" as="geometry" />
        </mxCell>
        <mxCell id="z98jd1UXB-r755YIcB5x-7" style="edgeStyle=orthogonalEdgeStyle;rounded=0;orthogonalLoop=1;jettySize=auto;html=1;exitX=0.5;exitY=1;exitDx=0;exitDy=0;entryX=0.5;entryY=0;entryDx=0;entryDy=0;fontSize=14;strokeWidth=2;" edge="1" parent="1" source="z98jd1UXB-r755YIcB5x-3" target="z98jd1UXB-r755YIcB5x-5">
          <mxGeometry relative="1" as="geometry" />
        </mxCell>
        <mxCell id="z98jd1UXB-r755YIcB5x-3" value="生成一个capText：6+2=？@8" style="rounded=1;whiteSpace=wrap;html=1;fontSize=14;strokeWidth=2;" vertex="1" parent="1">
          <mxGeometry x="310" y="290" width="120" height="60" as="geometry" />
        </mxCell>
        <mxCell id="z98jd1UXB-r755YIcB5x-9" style="edgeStyle=orthogonalEdgeStyle;rounded=0;orthogonalLoop=1;jettySize=auto;html=1;fontSize=14;strokeWidth=2;" edge="1" parent="1" source="z98jd1UXB-r755YIcB5x-4" target="z98jd1UXB-r755YIcB5x-8">
          <mxGeometry relative="1" as="geometry" />
        </mxCell>
        <mxCell id="z98jd1UXB-r755YIcB5x-4" value="切割capText生成一个capStr:6+2=?" style="rounded=1;whiteSpace=wrap;html=1;fontSize=14;strokeWidth=2;" vertex="1" parent="1">
          <mxGeometry x="170" y="400" width="120" height="60" as="geometry" />
        </mxCell>
        <mxCell id="z98jd1UXB-r755YIcB5x-15" style="edgeStyle=orthogonalEdgeStyle;rounded=0;orthogonalLoop=1;jettySize=auto;html=1;entryX=0.5;entryY=0;entryDx=0;entryDy=0;fontSize=14;strokeWidth=2;" edge="1" parent="1" source="z98jd1UXB-r755YIcB5x-5" target="z98jd1UXB-r755YIcB5x-14">
          <mxGeometry relative="1" as="geometry" />
        </mxCell>
        <mxCell id="z98jd1UXB-r755YIcB5x-5" value="&lt;span style=&quot;&quot;&gt;切割capText生成一个code:8&lt;/span&gt;" style="rounded=1;whiteSpace=wrap;html=1;fontSize=14;strokeWidth=2;" vertex="1" parent="1">
          <mxGeometry x="450" y="400" width="120" height="60" as="geometry" />
        </mxCell>
        <mxCell id="z98jd1UXB-r755YIcB5x-11" style="edgeStyle=orthogonalEdgeStyle;rounded=0;orthogonalLoop=1;jettySize=auto;html=1;entryX=0.5;entryY=0;entryDx=0;entryDy=0;fontSize=14;strokeWidth=2;" edge="1" parent="1" source="z98jd1UXB-r755YIcB5x-8" target="z98jd1UXB-r755YIcB5x-10">
          <mxGeometry relative="1" as="geometry" />
        </mxCell>
        <mxCell id="z98jd1UXB-r755YIcB5x-8" value="转为image" style="rounded=1;whiteSpace=wrap;html=1;fontSize=14;strokeWidth=2;" vertex="1" parent="1">
          <mxGeometry x="170" y="510" width="120" height="60" as="geometry" />
        </mxCell>
        <mxCell id="z98jd1UXB-r755YIcB5x-17" style="edgeStyle=orthogonalEdgeStyle;rounded=0;orthogonalLoop=1;jettySize=auto;html=1;fontSize=14;strokeWidth=2;" edge="1" parent="1" source="z98jd1UXB-r755YIcB5x-10" target="z98jd1UXB-r755YIcB5x-16">
          <mxGeometry relative="1" as="geometry" />
        </mxCell>
        <mxCell id="z98jd1UXB-r755YIcB5x-10" value="用字节流写会前端页面" style="rounded=1;whiteSpace=wrap;html=1;fontSize=14;strokeWidth=2;" vertex="1" parent="1">
          <mxGeometry x="170" y="640" width="120" height="60" as="geometry" />
        </mxCell>
        <mxCell id="z98jd1UXB-r755YIcB5x-18" style="edgeStyle=orthogonalEdgeStyle;rounded=0;orthogonalLoop=1;jettySize=auto;html=1;entryX=0.5;entryY=0;entryDx=0;entryDy=0;fontSize=14;strokeWidth=2;" edge="1" parent="1" source="z98jd1UXB-r755YIcB5x-14" target="z98jd1UXB-r755YIcB5x-16">
          <mxGeometry relative="1" as="geometry" />
        </mxCell>
        <mxCell id="z98jd1UXB-r755YIcB5x-14" value="存入Redis缓存中，key是UUID拼接成的verifyKey" style="rounded=1;whiteSpace=wrap;html=1;fontSize=14;strokeWidth=2;" vertex="1" parent="1">
          <mxGeometry x="450" y="510" width="120" height="60" as="geometry" />
        </mxCell>
        <mxCell id="z98jd1UXB-r755YIcB5x-16" value="返回结果" style="rounded=1;whiteSpace=wrap;html=1;fontSize=14;strokeWidth=2;" vertex="1" parent="1">
          <mxGeometry x="340" y="770" width="120" height="60" as="geometry" />
        </mxCell>
      </root>
    </mxGraphModel>
  </diagram>
</mxfile>
